<?xml version="1.0" standalone="no"?>
<!DOCTYPE svg PUBLIC "-//W3C//DTD SVG 1.1//EN"
  "http://www.w3.org/Graphics/SVG/1.1/DTD/svg11.dtd">
<svg width="95mm" height="94.99999999999999mm" viewBox="-47.5 -47.49999999999999 95 94.99999999999999" xmlns="http://www.w3.org/2000/svg" version="1.1">
	<title>svgOutput</title>
	<desc>made with tinkercad</desc>
<path d="M -45.62099838256836 -45.62099838256835 L -45.45000076293945 -45.771133422851555 L -45.32600021362305 -45.88000106811523 L -45.25 -45.93082046508788 L -45 -46.0979995727539 L -44.64799880981445 -46.27199935913085 L -44.2760009765625 -46.397998809814446 L -43.891998291015625 -46.47399902343749 L -43.5 -46.49999999999999 L -38.45000076293945 -46.49999999999999 L -38.25 -46.49999999999999 L -32.768001556396484 -46.49999999999999 L -16.384000778198242 -46.49999999999999 L 0 -46.49999999999999 L 3.549999952316284 -46.49999999999999 L 10.550000190734863 -46.49999999999999 L 16.384000778198242 -46.49999999999999 L 32.768001556396484 -46.49999999999999 L 43.5 -46.49999999999999 L 43.891998291015625 -46.47399902343749 L 44.2760009765625 -46.397998809814446 L 44.64799880981445 -46.27199935913085 L 45 -46.0979995727539 L 45.32600021362305 -45.88000106811523 L 45.62099838256836 -45.62099838256835 L 45.880001068115234 -45.32600021362304 L 46.097999572753906 -44.99999999999999 L 46.27199935913086 -44.647998809814446 L 46.39799880981445 -44.27600097656249 L 46.4739990234375 -43.89199829101562 L 46.5 -43.49999999999999 L 46.5 -40.95999908447265 L 46.5 -32.76800155639648 L 46.5 -15.248000144958493 L 46.5 1.1102230246251565e-16 L 46.5 30.053577423095696 L 46.5 32.76800155639648 L 46.5 35.73242187499999 L 46.5 40.95999908447265 L 46.5 43.49999999999999 L 46.4739990234375 43.89199829101562 L 46.452030181884766 44.002998352050774 L 46.39799880981445 44.27600097656249 L 46.27199935913086 44.647998809814446 L 46.097999572753906 44.99999999999999 L 45.880001068115234 45.32600021362304 L 45.62099838256836 45.62099838256835 L 45.47406768798828 45.74999999999999 L 45.32600021362305 45.88000106811523 L 45 46.0979995727539 L 44.64799880981445 46.27199935913085 L 44.2760009765625 46.397998809814446 L 43.891998291015625 46.47399902343749 L 43.5 46.49999999999999 L 32.768001556396484 46.49999999999999 L 0 46.49999999999999 L -32.768001556396484 46.49999999999999 L -43.5 46.49999999999999 L -43.891998291015625 46.47399902343749 L -44.2760009765625 46.397998809814446 L -44.64799880981445 46.27199935913085 L -45 46.0979995727539 L -45.32600021362305 45.88000106811523 L -45.45000076293945 45.771133422851555 L -45.62099838256836 45.62099838256835 L -45.880001068115234 45.32600021362304 L -46.097999572753906 44.99999999999999 L -46.27199935913086 44.647998809814446 L -46.39799880981445 44.27600097656249 L -46.4739990234375 43.89199829101562 L -46.5 43.49999999999999 L -46.5 40.95999908447265 L -46.5 32.76800155639648 L -46.5 1.1102230246251565e-16 L -46.5 -32.76800155639648 L -46.5 -40.95999908447265 L -46.5 -43.49999999999999 L -46.4739990234375 -43.89199829101562 L -46.39799880981445 -44.27600097656249 L -46.27199935913086 -44.647998809814446 L -46.097999572753906 -44.99999999999999 L -45.880001068115234 -45.32600021362304 L -45.62099838256836 -45.62099838256835 M -6.36299991607666 -35.23400115966796 L -14.520000457763672 -35.23400115966796 L -16.384000778198242 -33.91838073730468 L -18.013887405395508 -32.76800155639648 L -21.27400016784668 -30.46699905395507 L -16.55699920654297 -25.749999999999993 L 0 -25.749999999999993 L 3.549999952316284 -25.749999999999993 L 10.550000190734863 -25.749999999999993 L 16.55699920654297 -25.749999999999993 L 21.27400016784668 -30.46699905395507 L 18.37672996520996 -32.51190567016601 L 18.013887405395508 -32.76800155639648 L 17.415843963623047 -33.19010162353515 L 16.384000778198242 -33.91838073730468 L 14.520000457763672 -35.23400115966796 L 10.550000190734863 -35.23400115966796 L 6.36299991607666 -35.23400115966796 L 3.549999952316284 -39.2205467224121 L 3 -39.99999999999999 L 0 -39.99999999999999 L -3 -39.99999999999999 L -3.3556969165802 -39.49591064453124 L -6.36299991607666 -35.23400115966796 M -32.606998443603516 31.267999649047844 L -32.768001556396484 31.253927230834954 L -32.893001556396484 31.24300003051757 L -33.18000030517578 31.267999649047844 L -33.45800018310547 31.343000411987298 L -33.71799850463867 31.46400070190429 L -33.95399856567383 31.628999710083 L -34.15700149536133 31.83300018310546 L -34.321998596191406 32.068000793457024 L -34.444000244140625 32.32899856567382 L -34.518001556396484 32.60699844360351 L -34.532073974609375 32.76800155639648 L -34.542999267578125 32.89300155639648 L -34.518001556396484 33.180000305175774 L -34.444000244140625 33.45800018310546 L -34.321998596191406 33.717998504638665 L -34.15700149536133 33.95399856567382 L -33.95399856567383 34.15700149536132 L -33.71799850463867 34.3219985961914 L -33.45800018310547 34.44400024414062 L -33.18000030517578 34.51800155639648 L -32.893001556396484 34.54299926757812 L -32.768001556396484 34.53207397460937 L -32.606998443603516 34.51800155639648 L -32.32899856567383 34.44400024414062 L -32.06800079345703 34.3219985961914 L -31.83300018310547 34.15700149536132 L -31.628999710083008 33.95399856567382 L -31.464000701904297 33.717998504638665 L -31.343000411987305 33.45800018310546 L -31.26799964904785 33.180000305175774 L -31.243000030517578 32.89300155639648 L -31.25392723083496 32.76800155639648 L -31.26799964904785 32.60699844360351 L -31.343000411987305 32.32899856567382 L -31.464000701904297 32.068000793457024 L -31.628999710083008 31.83300018310546 L -31.83300018310547 31.628999710083 L -32.06800079345703 31.46400070190429 L -32.32899856567383 31.343000411987298 L -32.606998443603516 31.267999649047844 M -7.714000225067139 -39.79999923706054 L -7.620999813079834 -39.99999999999999 L -7.765999794006348 -39.99999999999999 L -9.173999786376953 -39.00600051879882 L -9.100000381469727 -38.99999999999999 L -8.821999549865723 -39.02399826049804 L -8.553000450134277 -39.09600067138671 L -8.300000190734863 -39.21400070190429 L -8.071999549865723 -39.3740005493164 L -7.874000072479248 -39.5719985961914 L -7.714000225067139 -39.79999923706054 M -31.26799964904785 -33.180000305175774 L -31.343000411987305 -33.45800018310546 L -31.464000701904297 -33.717998504638665 L -31.628999710083008 -33.95399856567382 L -31.83300018310547 -34.15700149536132 L -32.06800079345703 -34.3219985961914 L -32.32899856567383 -34.44400024414062 L -32.606998443603516 -34.51800155639648 L -32.768001556396484 -34.53207397460937 L -32.893001556396484 -34.54299926757812 L -33.18000030517578 -34.51800155639648 L -33.45800018310547 -34.44400024414062 L -33.71799850463867 -34.3219985961914 L -33.95399856567383 -34.15700149536132 L -34.15700149536133 -33.95399856567382 L -34.321998596191406 -33.717998504638665 L -34.444000244140625 -33.45800018310546 L -34.518001556396484 -33.180000305175774 L -34.542999267578125 -32.89300155639648 L -34.532073974609375 -32.76800155639648 L -34.518001556396484 -32.60699844360351 L -34.444000244140625 -32.32899856567382 L -34.321998596191406 -32.068000793457024 L -34.15700149536133 -31.83300018310546 L -33.95399856567383 -31.628999710083 L -33.71799850463867 -31.46400070190429 L -33.45800018310547 -31.343000411987298 L -33.18000030517578 -31.267999649047844 L -32.893001556396484 -31.24300003051757 L -32.768001556396484 -31.253927230834954 L -32.606998443603516 -31.267999649047844 L -32.32899856567383 -31.343000411987298 L -32.06800079345703 -31.46400070190429 L -31.83300018310547 -31.628999710083 L -31.628999710083008 -31.83300018310546 L -31.464000701904297 -32.068000793457024 L -31.343000411987305 -32.32899856567382 L -31.26799964904785 -32.60699844360351 L -31.25392723083496 -32.76800155639648 L -31.243000030517578 -32.89300155639648 L -31.26799964904785 -33.180000305175774 M 32.893001556396484 -34.54299926757812 L 32.768001556396484 -34.53207397460937 L 32.606998443603516 -34.51800155639648 L 32.32899856567383 -34.44400024414062 L 32.06800079345703 -34.3219985961914 L 31.83300018310547 -34.15700149536132 L 31.628999710083008 -33.95399856567382 L 31.464000701904297 -33.717998504638665 L 31.343000411987305 -33.45800018310546 L 31.26799964904785 -33.180000305175774 L 31.243000030517578 -32.89300155639648 L 31.25392723083496 -32.76800155639648 L 31.26799964904785 -32.60699844360351 L 31.343000411987305 -32.32899856567382 L 31.464000701904297 -32.068000793457024 L 31.628999710083008 -31.83300018310546 L 31.83300018310547 -31.628999710083 L 32.06800079345703 -31.46400070190429 L 32.32899856567383 -31.343000411987298 L 32.606998443603516 -31.267999649047844 L 32.768001556396484 -31.253927230834954 L 32.893001556396484 -31.24300003051757 L 33.18000030517578 -31.267999649047844 L 33.45800018310547 -31.343000411987298 L 33.71799850463867 -31.46400070190429 L 33.95399856567383 -31.628999710083 L 34.15700149536133 -31.83300018310546 L 34.321998596191406 -32.068000793457024 L 34.444000244140625 -32.32899856567382 L 34.518001556396484 -32.60699844360351 L 34.532073974609375 -32.76800155639648 L 34.542999267578125 -32.89300155639648 L 34.518001556396484 -33.180000305175774 L 34.444000244140625 -33.45800018310546 L 34.321998596191406 -33.717998504638665 L 34.15700149536133 -33.95399856567382 L 33.95399856567383 -34.15700149536132 L 33.71799850463867 -34.3219985961914 L 33.45800018310547 -34.44400024414062 L 33.18000030517578 -34.51800155639648 L 32.893001556396484 -34.54299926757812 M 41.862998962402344 -15.309000015258786 L 42.25 -15.248000144958493 L 42.637001037597656 -15.309000015258786 L 42.986000061035156 -15.487000465393063 L 43.26300048828125 -15.76399993896484 L 43.441001892089844 -16.113000869750973 L 43.48441696166992 -16.38400077819824 L 43.50299835205078 -16.499999999999996 L 43.441001892089844 -16.88699913024902 L 43.26300048828125 -17.236000061035153 L 42.986000061035156 -17.513000488281246 L 42.637001037597656 -17.690999984741207 L 42.25 -17.75300025939941 L 41.862998962402344 -17.690999984741207 L 41.513999938964844 -17.513000488281246 L 41.23699951171875 -17.236000061035153 L 41.058998107910156 -16.88699913024902 L 40.99800109863281 -16.499999999999996 L 41.01628494262695 -16.38400077819824 L 41.058998107910156 -16.113000869750973 L 41.23699951171875 -15.76399993896484 L 41.513999938964844 -15.487000465393063 L 41.862998962402344 -15.309000015258786 M 34.321998596191406 32.068000793457024 L 34.15700149536133 31.83300018310546 L 33.95399856567383 31.628999710083 L 33.71799850463867 31.46400070190429 L 33.45800018310547 31.343000411987298 L 33.18000030517578 31.267999649047844 L 32.893001556396484 31.24300003051757 L 32.768001556396484 31.253927230834954 L 32.606998443603516 31.267999649047844 L 32.32899856567383 31.343000411987298 L 32.06800079345703 31.46400070190429 L 31.83300018310547 31.628999710083 L 31.628999710083008 31.83300018310546 L 31.464000701904297 32.068000793457024 L 31.343000411987305 32.32899856567382 L 31.26799964904785 32.60699844360351 L 31.25392723083496 32.76800155639648 L 31.243000030517578 32.89300155639648 L 31.26799964904785 33.180000305175774 L 31.343000411987305 33.45800018310546 L 31.464000701904297 33.717998504638665 L 31.628999710083008 33.95399856567382 L 31.83300018310547 34.15700149536132 L 32.06800079345703 34.3219985961914 L 32.32899856567383 34.44400024414062 L 32.606998443603516 34.51800155639648 L 32.768001556396484 34.53207397460937 L 32.893001556396484 34.54299926757812 L 33.18000030517578 34.51800155639648 L 33.45800018310547 34.44400024414062 L 33.71799850463867 34.3219985961914 L 33.95399856567383 34.15700149536132 L 34.15700149536133 33.95399856567382 L 34.321998596191406 33.717998504638665 L 34.444000244140625 33.45800018310546 L 34.518001556396484 33.180000305175774 L 34.542999267578125 32.89300155639648 L 34.532073974609375 32.76800155639648 L 34.518001556396484 32.60699844360351 L 34.444000244140625 32.32899856567382 L 34.321998596191406 32.068000793457024 M 41.862998962402344 43.94100189208984 L 42.25 44.002998352050774 L 42.637001037597656 43.94100189208984 L 42.986000061035156 43.76300048828124 L 43.26300048828125 43.48600006103515 L 43.441001892089844 43.13700103759765 L 43.461666107177734 43.00799942016601 L 43.50299835205078 42.74999999999999 L 43.441001892089844 42.36299896240234 L 43.26300048828125 42.01399993896484 L 42.986000061035156 41.73699951171874 L 42.637001037597656 41.55899810791015 L 42.25 41.498001098632805 L 41.862998962402344 41.55899810791015 L 41.513999938964844 41.73699951171874 L 41.23699951171875 42.01399993896484 L 41.058998107910156 42.36299896240234 L 40.99800109863281 42.74999999999999 L 41.038665771484375 43.00799942016601 L 41.058998107910156 43.13700103759765 L 41.23699951171875 43.48600006103515 L 41.513999938964844 43.76300048828124 L 41.862998962402344 43.94100189208984 M 7.874000072479248 -39.5719985961914 L 8.071999549865723 -39.3740005493164 L 8.300000190734863 -39.21400070190429 L 8.553000450134277 -39.09600067138671 L 8.821999549865723 -39.02399826049804 L 9.100000381469727 -38.99999999999999 L 9.173999786376953 -39.00600051879882 L 7.765999794006348 -39.99999999999999 L 7.620999813079834 -39.99999999999999 L 7.714000225067139 -39.79999923706054 L 7.874000072479248 -39.5719985961914 M -19.753000259399414 -1.5030000209808345 L -19.753000259399414 1.1102230246251565e-16 L -19.753000259399414 10.503000259399412 L -7.748000144958496 10.503000259399412 L -7.748000144958496 1.1102230246251565e-16 L -7.748000144958496 -1.5030000209808345 L -19.753000259399414 -1.5030000209808345 M -25.25 19.999999999999996 L -25.25 18.853000640869137 L -25.384000778198242 18.947000503540036 L -25.55299949645996 19.115999221801754 L -25.69099998474121 19.3120002746582 L -25.79199981689453 19.530000686645504 L -25.854000091552734 19.760999679565426 L -25.875 19.999999999999996 L -25.25 19.999999999999996 M 40 -30.499999999999993 L 40 -30.808000564575188 L 39.69200134277344 -30.499999999999993 L 40 -30.499999999999993 M -39.69200134277344 -30.499999999999993 L -40 -30.808000564575188 L -40 -30.499999999999993 L -39.69200134277344 -30.499999999999993 z" fill="none" stroke="rgb(255,0,0)" stroke-width="0.001mm" />
</svg>