<?xml version="1.0" standalone="no"?>
<!DOCTYPE svg PUBLIC "-//W3C//DTD SVG 1.1//EN"
  "http://www.w3.org/Graphics/SVG/1.1/DTD/svg11.dtd">
<svg width="95mm" height="94.99999999999999mm" viewBox="-57 -47.49999999999999 95 94.99999999999999" xmlns="http://www.w3.org/2000/svg" version="1.1">
	<title>svgOutput</title>
	<desc>made with tinkercad</desc>
<path d="M 36.9739990234375 -43.89199829101562 L 37 -43.49999999999999 L 37 -32.76800155639648 L 37 1.1102230246251565e-16 L 37 32.76800155639648 L 37 43.49999999999999 L 36.9739990234375 43.89199829101562 L 36.89799880981445 44.27600097656249 L 36.77199935913086 44.647998809814446 L 36.597999572753906 44.99999999999999 L 36.380001068115234 45.32600021362304 L 36.12099838256836 45.62099838256835 L 35.82600021362305 45.88000106811523 L 35.5 46.0979995727539 L 35.14799880981445 46.27199935913085 L 34.7760009765625 46.397998809814446 L 34.391998291015625 46.47399902343749 L 34 46.49999999999999 L 32.768001556396484 46.49999999999999 L 28.672000885009766 46.49999999999999 L 24.576000213623047 46.49999999999999 L 16.384000778198242 46.49999999999999 L 0 46.49999999999999 L -32.768001556396484 46.49999999999999 L -39.5535774230957 46.49999999999999 L -40.959999084472656 46.49999999999999 L -45.055999755859375 46.49999999999999 L -49.152000427246094 46.49999999999999 L -53 46.49999999999999 L -53.391998291015625 46.47399902343749 L -53.7760009765625 46.397998809814446 L -54.14799880981445 46.27199935913085 L -54.5 46.0979995727539 L -54.82600021362305 45.88000106811523 L -55.12099838256836 45.62099838256835 L -55.380001068115234 45.32600021362304 L -55.597999572753906 44.99999999999999 L -55.77199935913086 44.647998809814446 L -55.89799880981445 44.27600097656249 L -55.9739990234375 43.89199829101562 L -56 43.49999999999999 L -56 37.307998657226555 L -56 32.76800155639648 L -56 16.38400077819824 L -56 1.1102230246251565e-16 L -56 -16.38400077819824 L -56 -32.76800155639648 L -56 -40.95999908447265 L -56 -43.49999999999999 L -55.9739990234375 -43.89199829101562 L -55.89799880981445 -44.27600097656249 L -55.77199935913086 -44.647998809814446 L -55.597999572753906 -44.99999999999999 L -55.380001068115234 -45.32600021362304 L -55.12099838256836 -45.62099838256835 L -54.82600021362305 -45.88000106811523 L -54.5 -46.0979995727539 L -54.14799880981445 -46.27199935913085 L -53.7760009765625 -46.397998809814446 L -53.391998291015625 -46.47399902343749 L -53.24800109863281 -46.48355102539062 L -53 -46.49999999999999 L -49.152000427246094 -46.49999999999999 L -45.055999755859375 -46.49999999999999 L -40.959999084472656 -46.49999999999999 L -32.768001556396484 -46.49999999999999 L -31.878137588500977 -46.49999999999999 L -30.30046844482422 -46.49999999999999 L -28.533023834228516 -46.49999999999999 L -24.576000213623047 -46.49999999999999 L -16.384000778198242 -46.49999999999999 L 0 -46.49999999999999 L 8.192000389099121 -46.49999999999999 L 16.384000778198242 -46.49999999999999 L 24.576000213623047 -46.49999999999999 L 28.672000885009766 -46.49999999999999 L 32.768001556396484 -46.49999999999999 L 34 -46.49999999999999 L 34.391998291015625 -46.47399902343749 L 34.7760009765625 -46.397998809814446 L 35.14799880981445 -46.27199935913085 L 35.5 -46.0979995727539 L 35.82600021362305 -45.88000106811523 L 36.12099838256836 -45.62099838256835 L 36.380001068115234 -45.32600021362304 L 36.597999572753906 -44.99999999999999 L 36.77199935913086 -44.647998809814446 L 36.89799880981445 -44.27600097656249 L 36.9739990234375 -43.89199829101562 M 24.656999588012695 -33.95399856567382 L 24.576000213623047 -34.0349998474121 L 24.45400047302246 -34.15700149536132 L 24.218000411987305 -34.3219985961914 L 23.95800018310547 -34.44400024414062 L 23.68000030517578 -34.51800155639648 L 23.39299964904785 -34.54299926757812 L 23.10700035095215 -34.51800155639648 L 22.82900047302246 -34.44400024414062 L 22.56800079345703 -34.3219985961914 L 22.33300018310547 -34.15700149536132 L 22.128999710083008 -33.95399856567382 L 21.964000701904297 -33.717998504638665 L 21.843000411987305 -33.45800018310546 L 21.76799964904785 -33.180000305175774 L 21.743000030517578 -32.89300155639648 L 21.75392723083496 -32.76800155639648 L 21.76799964904785 -32.60699844360351 L 21.843000411987305 -32.32899856567382 L 21.964000701904297 -32.068000793457024 L 22.128999710083008 -31.83300018310546 L 22.33300018310547 -31.628999710083 L 22.56800079345703 -31.46400070190429 L 22.82900047302246 -31.343000411987298 L 23.10700035095215 -31.267999649047844 L 23.39299964904785 -31.24300003051757 L 23.68000030517578 -31.267999649047844 L 23.95800018310547 -31.343000411987298 L 24.218000411987305 -31.46400070190429 L 24.45400047302246 -31.628999710083 L 24.576000213623047 -31.751600265502923 L 24.656999588012695 -31.83300018310546 L 24.82200050354004 -32.068000793457024 L 24.944000244140625 -32.32899856567382 L 25.01799964904785 -32.60699844360351 L 25.032073974609375 -32.76800155639648 L 25.042999267578125 -32.89300155639648 L 25.01799964904785 -33.180000305175774 L 24.944000244140625 -33.45800018310546 L 24.82200050354004 -33.717998504638665 L 24.656999588012695 -33.95399856567382 M 2.686661720275879 -35.23400115966796 L 0 -35.23400115966796 L -3.13700008392334 -35.23400115966796 L -6.5 -39.99999999999999 L -8.192000389099121 -39.99999999999999 L -12.5 -39.99999999999999 L -15.86299991607666 -35.23400115966796 L -16.384000778198242 -35.23400115966796 L -24.019790649414062 -35.23400115966796 L -24.576000213623047 -34.84149551391601 L -27.514305114746094 -32.76800155639648 L -30.774444580078125 -30.46739196777343 L -26.057262420654297 -25.749999999999993 L 0 -25.749999999999993 L 7.0572614669799805 -25.749999999999993 L 11.774443626403809 -30.46739196777343 L 8.514304161071777 -32.76800155639648 L 8.192000389099121 -32.99544143676757 L 5.019791603088379 -35.23400115966796 L 2.686661720275879 -35.23400115966796 M -1.6260000467300415 -39.5719985961914 L -1.4279999732971191 -39.3740005493164 L -1.2000000476837158 -39.21400070190429 L -0.9470000267028809 -39.09600067138671 L -0.6779999732971191 -39.02399826049804 L -0.4000000059604645 -38.99999999999999 L -0.3259781301021576 -39.006389617919915 L -1.7339999675750732 -39.99999999999999 L -1.879280686378479 -39.99999999999999 L -1.7860000133514404 -39.79999923706054 L -1.6260000467300415 -39.5719985961914 M -18.43199920654297 -39.17718124389648 L -18.674022674560547 -39.006389617919915 L -18.600000381469727 -38.99999999999999 L -18.43199920654297 -39.0145034790039 L -18.32200050354004 -39.02399826049804 L -18.05299949645996 -39.09600067138671 L -17.799999237060547 -39.21400070190429 L -17.57200050354004 -39.3740005493164 L -17.374000549316406 -39.5719985961914 L -17.214000701904297 -39.79999923706054 L -17.12071990966797 -39.99999999999999 L -17.266000747680664 -39.99999999999999 L -18.43199920654297 -39.17718124389648 M -40.84299850463867 -33.45800018310546 L -40.959999084472656 -33.70940399169921 L -40.9640007019043 -33.717998504638665 L -41.12900161743164 -33.95399856567382 L -41.33300018310547 -34.15700149536132 L -41.56800079345703 -34.3219985961914 L -41.82899856567383 -34.44400024414062 L -42.106998443603516 -34.51800155639648 L -42.393001556396484 -34.54299926757812 L -42.68000030517578 -34.51800155639648 L -42.95800018310547 -34.44400024414062 L -43.007999420166016 -34.420539855957024 L -43.21799850463867 -34.3219985961914 L -43.45399856567383 -34.15700149536132 L -43.65700149536133 -33.95399856567382 L -43.821998596191406 -33.717998504638665 L -43.944000244140625 -33.45800018310546 L -44.018001556396484 -33.180000305175774 L -44.042999267578125 -32.89300155639648 L -44.032073974609375 -32.76800155639648 L -44.018001556396484 -32.60699844360351 L -43.944000244140625 -32.32899856567382 L -43.821998596191406 -32.068000793457024 L -43.65700149536133 -31.83300018310546 L -43.45399856567383 -31.628999710083 L -43.21799850463867 -31.46400070190429 L -42.95800018310547 -31.343000411987298 L -42.68000030517578 -31.267999649047844 L -42.393001556396484 -31.24300003051757 L -42.106998443603516 -31.267999649047844 L -41.82899856567383 -31.343000411987298 L -41.56800079345703 -31.46400070190429 L -41.33300018310547 -31.628999710083 L -41.12900161743164 -31.83300018310546 L -40.9640007019043 -32.068000793457024 L -40.959999084472656 -32.07662963867187 L -40.84299850463867 -32.32899856567382 L -40.768001556396484 -32.60699844360351 L -40.75392532348633 -32.76800155639648 L -40.74300003051758 -32.89300155639648 L -40.768001556396484 -33.180000305175774 L -40.84299850463867 -33.45800018310546 M 24.656999588012695 31.83300018310546 L 24.576000213623047 31.751600265502923 L 24.45400047302246 31.628999710083 L 24.218000411987305 31.46400070190429 L 23.95800018310547 31.343000411987298 L 23.68000030517578 31.267999649047844 L 23.39299964904785 31.24300003051757 L 23.10700035095215 31.267999649047844 L 22.82900047302246 31.343000411987298 L 22.56800079345703 31.46400070190429 L 22.33300018310547 31.628999710083 L 22.128999710083008 31.83300018310546 L 21.964000701904297 32.068000793457024 L 21.843000411987305 32.32899856567382 L 21.76799964904785 32.60699844360351 L 21.75392723083496 32.76800155639648 L 21.743000030517578 32.89300155639648 L 21.76799964904785 33.180000305175774 L 21.843000411987305 33.45800018310546 L 21.964000701904297 33.717998504638665 L 22.128999710083008 33.95399856567382 L 22.33300018310547 34.15700149536132 L 22.56800079345703 34.3219985961914 L 22.82900047302246 34.44400024414062 L 23.10700035095215 34.51800155639648 L 23.39299964904785 34.54299926757812 L 23.68000030517578 34.51800155639648 L 23.95800018310547 34.44400024414062 L 24.218000411987305 34.3219985961914 L 24.45400047302246 34.15700149536132 L 24.576000213623047 34.0349998474121 L 24.656999588012695 33.95399856567382 L 24.82200050354004 33.717998504638665 L 24.944000244140625 33.45800018310546 L 25.01799964904785 33.180000305175774 L 25.042999267578125 32.89300155639648 L 25.032073974609375 32.76800155639648 L 25.01799964904785 32.60699844360351 L 24.944000244140625 32.32899856567382 L 24.82200050354004 32.068000793457024 L 24.656999588012695 31.83300018310546 M -35.063232421875 11.174945831298826 L -35.0260009765625 11.227999687194822 L -34.827999114990234 11.425999641418455 L -34.75 11.480736732482908 L -34.75 10.506199836730955 L -34.88600158691406 10.699999809265135 L -35.00299835205078 10.953000068664549 L -35.063232421875 11.174945831298826 M -35.29199981689453 20.46999931335449 L -35.28734588623047 20.479999542236325 L -35.191001892089844 20.6870002746582 L -35.053001403808594 20.88400077819824 L -34.88399887084961 21.052999496459957 L -34.75 21.14686775207519 L -34.75 20.479999542236325 L -34.75 18.8531322479248 L -34.816001892089844 18.899366378784176 L -34.88399887084961 18.947000503540036 L -35.053001403808594 19.115999221801754 L -35.191001892089844 19.3120002746582 L -35.29199981689453 19.530000686645504 L -35.354000091552734 19.760999679565426 L -35.375 19.999999999999996 L -35.354000091552734 20.239000320434567 L -35.29199981689453 20.46999931335449 M -40.84299850463867 32.32899856567382 L -40.959999084472656 32.07662963867187 L -40.9640007019043 32.068000793457024 L -41.12900161743164 31.83300018310546 L -41.33300018310547 31.628999710083 L -41.56800079345703 31.46400070190429 L -41.82899856567383 31.343000411987298 L -42.106998443603516 31.267999649047844 L -42.393001556396484 31.24300003051757 L -42.68000030517578 31.267999649047844 L -42.95800018310547 31.343000411987298 L -43.21799850463867 31.46400070190429 L -43.45399856567383 31.628999710083 L -43.65700149536133 31.83300018310546 L -43.821998596191406 32.068000793457024 L -43.944000244140625 32.32899856567382 L -44.018001556396484 32.60699844360351 L -44.032073974609375 32.76800155639648 L -44.042999267578125 32.89300155639648 L -44.018001556396484 33.180000305175774 L -43.944000244140625 33.45800018310546 L -43.821998596191406 33.717998504638665 L -43.65700149536133 33.95399856567382 L -43.45399856567383 34.15700149536132 L -43.21799850463867 34.3219985961914 L -43.007999420166016 34.420539855957024 L -42.95800018310547 34.44400024414062 L -42.68000030517578 34.51800155639648 L -42.393001556396484 34.54299926757812 L -42.106998443603516 34.51800155639648 L -41.82899856567383 34.44400024414062 L -41.56800079345703 34.3219985961914 L -41.33300018310547 34.15700149536132 L -41.12900161743164 33.95399856567382 L -40.9640007019043 33.717998504638665 L -40.959999084472656 33.70940399169921 L -40.84299850463867 33.45800018310546 L -40.768001556396484 33.180000305175774 L -40.74300003051758 32.89300155639648 L -40.75392532348633 32.76800155639648 L -40.768001556396484 32.60699844360351 L -40.84299850463867 32.32899856567382 M 30.191999435424805 -30.499999999999993 L 30.5 -30.499999999999993 L 30.5 -30.808000564575188 L 30.191999435424805 -30.499999999999993 M -49.5 -30.499999999999993 L -49.19200134277344 -30.499999999999993 L -49.5 -30.808000564575188 L -49.5 -30.499999999999993 z" fill="none" stroke="rgb(255,0,0)" stroke-width="0.001mm" />
</svg>